<?xml version="1.0" encoding="UTF-8" standalone="no"?>
<!DOCTYPE svg PUBLIC "-//W3C//DTD SVG 1.1//EN" "http://www.w3.org/Graphics/SVG/1.1/DTD/svg11.dtd">
<svg width="180.00" height="180.00" viewBox="0.00 0.00 180.00 180.00" xmlns="http://www.w3.org/2000/svg" xmlns:xlink="http://www.w3.org/1999/xlink">
<g stroke-linecap="round" id="レイヤー_3">
<path d="M71.62,14.78 C98.49,14.80 166.03,14.87 206.69,14.91 C236.66,14.94 270.41,14.98 274.19,14.98" fill="none" stroke="rgb(255, 255, 255)" stroke-width="225.60" stroke-opacity="1.00" stroke-linejoin="round"/>
<path d="M157.25,150.88 C156.07,152.63 153.35,155.21 151.29,156.56 C149.24,157.87 144.95,159.86 142.38,160.54 C140.23,161.10 133.52,161.65 131.74,161.67 C109.40,150.91 53.71,124.08 20.34,108.00 C-16.20,90.40 -78.52,60.38 -104.30,47.96 C-109.02,45.69 -114.82,42.89 -115.89,42.38" fill="none" stroke="rgb(255, 255, 255)" stroke-width="225.60" stroke-opacity="1.00" stroke-linejoin="round"/>
<path d="M97.51,271.06 C82.13,246.30 46.52,188.98 26.28,156.40 C22.78,150.77 16.48,140.63 13.68,136.12 C13.68,136.12 13.77,135.82 13.77,135.82" fill="none" stroke="rgb(255, 255, 255)" stroke-width="225.60" stroke-opacity="1.00" stroke-linejoin="round"/>
<path d="M68.40,67.75 C68.40,67.75 66.53,67.97 66.53,67.97 C65.78,66.50 67.71,53.06 68.83,46.40 C70.65,36.43 73.11,27.70 74.54,25.43" fill="none" stroke="rgb(255, 255, 255)" stroke-width="16.56" stroke-opacity="1.00" stroke-linejoin="round"/>
<path d="M78.92,52.18 C79.00,44.23 79.20,30.48 79.25,30.26 C79.38,29.77 80.72,37.99 81.33,39.43 C81.81,40.63 83.93,43.79 83.98,44.63 C84.05,46.27 82.57,50.55 81.46,52.51 C77.15,59.83 67.47,72.48 67.20,72.56 C66.54,72.68 66.58,68.67 66.63,67.49 C66.68,66.36 66.45,60.15 66.72,56.09 C91.70,51.26 154.82,39.07 192.98,31.70 C230.32,24.48 290.69,12.82 313.71,8.37" fill="none" stroke="rgb(255, 255, 255)" stroke-width="287.33" stroke-opacity="1.00" stroke-linejoin="round"/>
<path d="M-83.35,8.48 C-59.55,15.24 -0.06,32.14 35.62,42.27 C74.09,53.20 139.33,71.74 166.11,79.35 C175.78,82.10 176.05,82.20 175.81,82.23 C152.62,99.56 98.27,140.18 67.11,163.47 C57.06,170.98 46.04,179.21 45.08,179.93" fill="none" stroke="rgb(255, 255, 255)" stroke-width="287.33" stroke-opacity="1.00" stroke-linejoin="round"/>
<path d="M168.49,316.88 C146.20,298.72 93.39,255.70 62.87,230.84 C52.70,222.56 40.59,212.70 38.66,211.13 C23.79,191.24 -13.29,141.64 -35.50,111.93 C-59.83,79.39 -101.32,23.89 -118.49,0.93 C-121.63,-3.28 -125.49,-8.44 -126.20,-9.39" fill="none" stroke="rgb(255, 255, 255)" stroke-width="287.33" stroke-opacity="1.00" stroke-linejoin="round"/>
<path d="M32.22,32.67 C32.22,32.67 31.02,32.56 31.02,32.56 C36.01,35.44 54.20,49.07 60.07,55.25 C60.07,55.25 59.19,55.47 59.19,55.47" fill="none" stroke="rgb(0, 0, 0)" stroke-width="9.17" stroke-opacity="1.00" stroke-linejoin="round"/>
<path d="M114.66,51.96 C114.66,51.96 113.56,52.40 113.56,52.40 C116.19,48.78 126.57,40.36 132.09,35.96 C136.16,32.57 139.85,28.50 140.53,28.28 C140.53,28.28 139.65,28.72 139.65,28.72" fill="none" stroke="rgb(0, 0, 0)" stroke-width="9.17" stroke-opacity="1.00" stroke-linejoin="round"/>
<path d="M51.30,92.31 C49.17,92.32 48.12,92.28 47.79,92.09 C46.71,91.41 45.59,88.56 45.60,85.84 C45.62,84.65 46.70,82.23 47.57,81.34 C49.63,79.32 52.86,78.38 54.58,78.57 C55.39,78.71 56.85,79.30 57.44,79.81 C58.61,80.90 58.38,85.73 57.00,87.92 C56.18,89.18 53.15,91.95 51.73,92.20 C50.78,92.34 48.68,91.64 48.01,90.99 C46.90,89.86 46.48,85.84 46.91,84.63 C47.32,83.58 49.03,81.42 49.87,80.90 C51.00,80.26 52.85,79.78 53.82,80.03 C55.82,80.60 57.52,84.58 57.30,85.97 C57.05,87.23 55.86,89.48 54.97,90.50 C54.24,91.30 52.38,92.68 50.42,92.74 C48.66,91.52 46.93,88.65 46.69,87.81 C46.30,86.31 49.01,83.30 50.64,82.88 C51.62,82.66 53.40,83.14 54.26,83.86 C54.93,84.47 56.18,86.56 56.45,87.48 C56.92,89.28 55.00,92.36 54.15,92.96 C53.04,93.73 51.92,93.92 50.75,93.62 C49.20,92.02 47.80,88.92 47.57,87.92 C47.37,86.95 47.79,85.37 48.45,84.52 C49.07,83.77 50.96,82.42 51.84,82.11 C53.80,81.50 57.56,83.55 58.09,85.07 C58.51,86.45 56.66,89.27 54.91,89.56 C53.07,89.80 50.18,87.06 50.20,85.62 C50.30,84.29 53.48,82.13 55.57,82.22 C56.52,82.29 57.80,83.00 58.20,83.64 C58.86,84.83 57.27,87.48 55.90,87.81 C54.50,88.09 52.16,86.05 52.17,84.96 C52.25,83.66 55.06,81.57 56.56,81.78 C57.75,82.00 58.94,84.84 58.75,86.17 C58.52,87.50 56.40,89.76 55.02,90.00 C53.66,90.20 50.52,88.91 49.54,87.81 C48.61,86.68 49.06,83.64 50.42,82.11 C51.68,80.77 55.04,80.44 56.89,81.34 C58.56,82.22 59.35,84.45 59.19,86.60 C59.02,88.42 57.52,90.66 56.45,91.21 C55.36,91.73 52.06,92.19 50.64,91.98 C49.47,91.76 47.35,88.47 47.35,86.71 C47.41,85.20 49.22,82.85 50.53,81.78 C51.80,80.78 53.69,80.35 54.58,81.01 C55.41,81.67 57.30,85.58 57.76,86.93 C57.97,87.55 57.78,90.16 57.11,90.88 C56.53,91.46 55.00,92.05 54.04,92.09 C52.89,92.09 51.53,91.16 49.76,89.89" fill="none" stroke="rgb(0, 0, 0)" stroke-width="9.17" stroke-opacity="1.00" stroke-linejoin="round"/>
<path d="M127.81,87.92 C127.01,88.27 126.49,88.97 125.40,88.69 C124.50,88.42 121.96,85.60 121.78,83.86 C121.62,81.95 122.53,79.85 123.46,78.52 C123.95,77.85 125.12,76.76 125.84,76.41 C126.61,76.06 128.18,76.31 129.02,76.85 C130.95,78.17 132.51,81.61 132.28,82.93 C132.00,84.27 131.11,85.79 130.01,87.02 C128.63,88.51 127.14,89.08 125.95,89.13 C124.21,88.34 122.49,85.28 122.22,84.19 C121.73,81.99 122.42,80.17 123.26,78.96 C124.44,77.35 127.37,75.51 128.91,76.19 C130.04,76.74 132.03,80.10 132.20,81.12 C132.35,82.29 132.02,83.73 131.32,84.52 C130.12,85.83 126.65,86.63 125.62,86.39 C124.40,86.06 122.86,85.13 122.11,84.19 C121.50,83.37 121.01,81.70 121.24,80.90 C121.75,79.29 125.21,76.03 126.06,75.64 C127.77,74.92 130.86,76.22 131.76,76.96 C132.71,77.78 133.93,79.31 134.17,80.14 C134.54,81.51 132.71,84.58 131.76,85.40 C130.13,86.74 127.31,86.85 126.06,86.39 C124.79,85.87 122.30,83.73 122.33,82.22 C122.39,80.85 125.31,76.82 126.06,76.30 C127.01,75.69 128.71,75.16 129.57,75.31 C131.37,75.70 133.23,79.03 132.97,80.79 C132.66,82.46 129.97,84.77 128.69,84.52 C127.30,84.20 125.77,81.87 125.84,80.79 C126.41,79.97 128.67,79.18 129.57,79.59 C131.54,80.58 130.05,82.68 129.24,82.66 C129.24,82.66 127.81,81.56 127.81,81.56" fill="none" stroke="rgb(0, 0, 0)" stroke-width="9.17" stroke-opacity="1.00" stroke-linejoin="round"/>
<path d="M69.06,111.82 C67.00,111.82 65.21,113.23 64.56,114.56 C63.75,116.31 62.85,119.70 63.03,121.25 C63.23,122.70 65.51,125.46 69.06,126.84 C70.96,127.56 77.71,128.43 79.03,128.15 C79.83,127.96 86.23,124.24 87.14,123.22 C89.96,120.01 90.79,116.50 90.76,116.42 C90.73,117.95 91.51,120.23 92.19,121.03 C94.08,123.22 99.04,125.60 101.39,125.63 C103.21,125.63 108.29,124.53 111.26,123.22 C112.71,122.55 115.25,119.93 115.86,118.29 C116.12,117.53 115.90,112.26 115.54,111.49 C114.89,110.35 113.25,109.53 111.15,108.53" fill="none" stroke="rgb(0, 0, 0)" stroke-width="9.17" stroke-opacity="1.00" stroke-linejoin="round"/>
<path d="M81.99,129.58 C81.99,129.58 80.46,129.14 80.46,129.14 C80.43,133.28 81.05,136.63 82.21,139.44 C83.38,142.19 86.45,146.94 87.58,148.10 C88.92,149.42 90.90,150.29 92.41,150.19 C93.70,150.07 97.03,147.37 97.23,147.12 C99.17,144.66 102.61,136.56 103.37,133.52 C103.80,131.91 103.95,129.21 103.92,127.17 C103.92,127.17 103.92,128.04 103.92,128.04" fill="none" stroke="rgb(0, 0, 0)" stroke-width="9.17" stroke-opacity="1.00" stroke-linejoin="round"/>
</g>
</svg>
